<svg width="35" height="37" viewBox="0 0 35 37" fill="none" xmlns="http://www.w3.org/2000/svg">
<g clip-path="url(#clip0_2_79)" filter="url(#filter0_d_2_79)">
<path d="M30.98 5.99H8.48999V28.48H30.98V5.99Z" fill="#DF774B" fill-opacity="0.75"/>
<path d="M26.03 15.6C26.03 16.03 25.68 16.39 25.24 16.39H5.75997C5.32997 16.39 4.96997 16.04 4.96997 15.6V4.48C4.96997 4.05 5.31997 3.69 5.75997 3.69H25.25C25.68 3.69 26.04 4.04 26.04 4.48V15.6H26.03Z" stroke="black" stroke-width="0.75" stroke-miterlimit="10" stroke-linecap="round" stroke-linejoin="round"/>
<path d="M16.14 18.3C16.14 18.65 15.85 18.94 15.5 18.94C15.15 18.94 14.86 18.65 14.86 18.3C14.86 17.95 15.15 17.66 15.5 17.66C15.85 17.66 16.14 17.95 16.14 18.3Z" fill="black"/>
<path d="M21.11 24.21C21.11 24.62 20.81 24.95 20.43 24.95H10.57C10.2 24.95 9.89001 24.62 9.89001 24.21C9.89001 23.8 10.19 23.47 10.57 23.47H20.43C20.81 23.47 21.11 23.8 21.11 24.21Z" fill="black"/>
<path d="M18.4 20.03H15.5H12.6C12.6 20.03 12.85 21.53 11.52 23.47H15.5H19.48C18.15 21.53 18.4 20.03 18.4 20.03Z" stroke="black" stroke-width="0.75" stroke-miterlimit="10" stroke-linecap="round" stroke-linejoin="round"/>
</g>
<defs>
<filter id="filter0_d_2_79" x="-1" y="0" width="35.98" height="36.49" filterUnits="userSpaceOnUse" color-interpolation-filters="sRGB">
<feFlood flood-opacity="0" result="BackgroundImageFix"/>
<feColorMatrix in="SourceAlpha" type="matrix" values="0 0 0 0 0 0 0 0 0 0 0 0 0 0 0 0 0 0 127 0" result="hardAlpha"/>
<feOffset dy="4"/>
<feGaussianBlur stdDeviation="2"/>
<feComposite in2="hardAlpha" operator="out"/>
<feColorMatrix type="matrix" values="0 0 0 0 0 0 0 0 0 0 0 0 0 0 0 0 0 0 0.25 0"/>
<feBlend mode="normal" in2="BackgroundImageFix" result="effect1_dropShadow_2_79"/>
<feBlend mode="normal" in="SourceGraphic" in2="effect1_dropShadow_2_79" result="shape"/>
</filter>
<clipPath id="clip0_2_79">
<rect width="27.98" height="28.49" fill="white" transform="translate(3)"/>
</clipPath>
</defs>
</svg>
